<svg width="44" height="44" viewBox="0 0 44 44" fill="none" xmlns="http://www.w3.org/2000/svg">
<path d="M17.9666 36.2083H26.0333L24.6583 33.2749L23.4666 30.5249H20.5333L19.3416 33.2749L17.9666 36.2083Z" fill="#FF7058"/>
<path d="M12.8334 36.2085H31.1668C32.1751 36.2085 33.0001 37.0335 33.0001 38.0418V44.0001H11.0917V38.0418C11.0001 37.0335 11.8251 36.2085 12.8334 36.2085Z" fill="#FFD15C"/>
<path d="M19.3415 33.275C20.0749 33.6417 20.8082 34.0083 21.5416 34.2834L21.9999 34.3751L22.4583 34.1917C23.1916 33.9167 23.9249 33.5501 24.6583 33.1834L23.4666 30.4333H20.6249L19.3415 33.275Z" fill="#F1543F"/>
<path d="M44.0001 5.04175V8.8001C44.0001 17.9668 38.3167 25.8501 30.3417 29.1502C27.7751 30.2502 24.9334 30.8001 22 30.8001C19.0667 30.8001 16.225 30.2502 13.6584 29.1502C5.68336 25.8502 3.8147e-06 17.9668 3.8147e-06 8.80018V5.04175H44.0001ZM3.66677 8.8001C3.66677 13.2001 5.22507 17.2335 7.88341 20.4418C11.2751 24.475 16.3168 27.1335 22 27.1335C27.6833 27.1335 32.725 24.5668 36.1167 20.4418C38.6833 17.3251 40.3333 13.2001 40.3333 8.8001V8.70842H3.75844V8.8001H3.66677Z" fill="#F8B64C"/>
<path d="M7.70045 0H36.3005C36.9422 0 37.4005 0.549966 37.4005 1.10002C37.4005 1.74166 36.9423 2.29172 36.3005 2.29172H7.70045C7.05881 2.29172 6.60043 1.74175 6.60043 1.1917C6.60051 0.549966 7.05881 0 7.70045 0Z" fill="#F8B64C"/>
<path d="M7.69893 2.2915V12.1915C7.69893 21.3582 13.3823 29.6999 21.9989 32.9999C30.6156 29.6082 36.2989 21.3582 36.2989 12.0998V2.2915H7.69893Z" fill="#FFD15C"/>
<path d="M21.9997 6.41675L20.0748 12.2834H13.9331L18.8831 15.95L17.0498 21.8168L21.9997 18.1501L26.9498 21.8168L25.1165 15.95L30.0665 12.2834H23.9248L21.9997 6.41675Z" fill="white"/>
<path d="M7.79256 2.2915H36.3009V3.66646H7.79256V2.2915Z" fill="#FFC952"/>
</svg>
