<svg width="46" height="52" viewBox="0 0 46 52" fill="none" xmlns="http://www.w3.org/2000/svg">
<path d="M28.9577 39.7584C29.6077 37.5917 30.9077 35.6418 32.6411 34.125C35.8911 31.4167 37.9495 27.3 37.9495 22.75C37.9495 14.3 30.9078 7.36667 22.2411 7.80003C14.5494 8.12503 8.266 14.625 8.04937 22.3167C7.941 27.0834 9.99937 31.3084 13.3577 34.125C15.1994 35.6416 16.4994 37.5916 17.1494 39.7584H28.9577Z" fill="#FFCD1D"/>
<path d="M21.5909 39.975H22.5659L18.2326 23.8333C18.3409 23.8333 18.4492 23.8333 18.5576 23.8333C19.0992 23.8333 19.6409 23.6167 20.0742 23.1833C20.2908 22.9667 20.5076 22.8583 20.8326 22.8583C21.1576 22.8583 21.3742 22.9667 21.5909 23.1833C22.3493 24.05 23.6493 24.05 24.4076 23.1833C24.6242 22.9667 24.8409 22.8583 25.1659 22.8583C25.3826 22.8583 25.7075 22.9667 25.9243 23.1833C26.3576 23.6167 26.7909 23.8333 27.4409 23.8333C27.5493 23.8333 27.6575 23.8333 27.7659 23.8333L23.5409 39.975H24.5159L28.9575 23.075C28.9575 22.8583 28.9575 22.6416 28.7409 22.5333C28.5243 22.425 28.3075 22.5333 28.1993 22.6417C27.9826 22.8583 27.7659 22.9667 27.5493 22.9667C27.2243 22.9667 27.0076 22.8583 26.6826 22.6417C26.2493 22.2083 25.816 21.9917 25.2743 21.9917C24.7326 21.9917 24.2993 22.2083 23.8659 22.6417C23.4326 23.0751 22.7826 23.0751 22.3493 22.6417C22.0243 22.2083 21.4827 21.9917 20.9409 21.9917C20.3993 21.9917 19.8576 22.2083 19.5326 22.6417C19.3159 22.8583 18.9909 22.9667 18.6659 22.9667C18.4493 22.9667 18.1243 22.8583 18.0159 22.6417C17.9076 22.5333 17.6909 22.4251 17.4743 22.5333C17.2577 22.6417 17.1493 22.8583 17.2577 23.075L21.5909 39.975Z" fill="white"/>
<path d="M19.6411 49.7249C20.1828 51.0248 21.4828 51.9998 22.9995 51.9998C24.5161 51.9998 25.8161 51.0248 26.3579 49.7249H19.6411Z" fill="#344A5E"/>
<path d="M27.0073 49.8333H19.099C18.0156 49.8333 17.149 48.9666 17.149 47.8833V39.6499H28.9573V47.8833C28.9573 48.9665 28.0906 49.8333 27.0073 49.8333Z" fill="#344A5E"/>
<path d="M28.8496 43.7666H17.1496C16.4996 43.7666 15.9579 43.2249 15.9579 42.5749C15.9579 41.9249 16.4996 41.3833 17.1496 41.3833H28.8496C29.4996 41.3833 30.0412 41.9249 30.0412 42.5749C30.0412 43.2249 29.4996 43.7666 28.8496 43.7666Z" fill="#415A6B"/>
<path d="M28.8487 47.5583H17.1487C16.4987 47.5583 15.9571 47.0167 15.9571 46.3667C15.9571 45.7167 16.4987 45.175 17.1487 45.175H28.8487C29.4987 45.175 30.0403 45.7167 30.0403 46.3667C30.0403 47.0166 29.4987 47.5583 28.8487 47.5583Z" fill="#415A6B"/>
<path d="M22.9982 0C22.4565 0 21.9148 0.433367 21.9148 1.08337V4.76673C21.9148 5.30836 22.3482 5.8501 22.9982 5.8501C23.6482 5.8501 24.0815 5.41673 24.0815 4.76673V1.08337C24.0815 0.433367 23.5398 0 22.9982 0Z" fill="#FFD15C"/>
<path d="M8.48359 6.60847C8.05022 6.17511 7.40022 6.17511 6.96695 6.60847C6.53369 7.04184 6.53359 7.69184 6.96695 8.1251L9.56695 10.7251C10.0003 11.1585 10.6503 11.1585 11.0836 10.7251C11.5169 10.2917 11.517 9.64173 11.0836 9.20847L8.48359 6.60847Z" fill="#FFD15C"/>
<path d="M5.12415 21.5583H1.44079C0.899156 21.5583 0.357422 21.9917 0.357422 22.6417C0.357422 23.1833 0.790789 23.7251 1.44079 23.7251H5.12415C5.66579 23.7251 6.20752 23.2917 6.20752 22.6417C6.20752 22.1 5.66579 21.5583 5.12415 21.5583Z" fill="#FFD15C"/>
<path d="M9.56546 34.5584L6.96547 37.1584C6.5321 37.5918 6.5321 38.2417 6.96547 38.675C7.39883 39.1083 8.04883 39.1084 8.4821 38.675L11.0821 36.075C11.5155 35.6417 11.5155 34.9917 11.0821 34.5584C10.6487 34.1251 9.99883 34.125 9.56546 34.5584Z" fill="#FFD15C"/>
<path d="M36.4334 34.5584C36.0001 34.1251 35.3501 34.1251 34.9167 34.5584C34.4833 34.9918 34.4833 35.6418 34.9167 36.0751L37.5167 38.675C37.9501 39.1084 38.6001 39.1084 39.0333 38.675C39.4666 38.2417 39.4667 37.5917 39.0333 37.1584L36.4334 34.5584Z" fill="#FFD15C"/>
<path d="M44.5565 21.5583H40.8732C40.3315 21.5583 39.7898 21.9917 39.7898 22.6417C39.7898 23.1833 40.2232 23.7251 40.8732 23.7251H44.5565C45.0982 23.7251 45.6399 23.2917 45.6399 22.6417C45.6398 22.1 45.2065 21.5583 44.5565 21.5583Z" fill="#FFD15C"/>
<path d="M37.5167 6.60819L34.9167 9.20819C34.4833 9.64156 34.4833 10.2916 34.9167 10.7248C35.3501 11.1582 36.0001 11.1582 36.4333 10.7248L39.0333 8.12482C39.4667 7.69146 39.4667 7.04146 39.0333 6.60819C38.6 6.17492 37.9501 6.17482 37.5167 6.60819Z" fill="#FFD15C"/>
</svg>
