<svg width="629" height="461" viewBox="0 0 629 461" fill="none" xmlns="http://www.w3.org/2000/svg">
<g opacity="0.6">
<path d="M17 19.8958L75.9661 26.1929L99.9532 80.41L17 19.8958Z" fill="#54EACE"/>
</g>
<path d="M73.7043 75.6393C73.2363 75.8151 72.6979 75.8037 72.2412 75.4412L1.00111 23.156C0.380479 22.6414 0.251171 21.7286 0.730599 21.0143C1.2452 20.3937 2.15804 20.2644 2.87229 20.7438L74.1124 73.029C74.8266 73.5084 74.9559 74.4213 74.4765 75.1355C74.1372 75.3698 73.9852 75.5337 73.7043 75.6393Z" fill="#FFDC6B"/>
<g opacity="0.7">
<path d="M552.963 457.459C552.759 457.452 552.555 457.445 552.351 457.438C551.346 456.993 550.77 455.952 551.214 454.946L557.346 437.596C557.791 436.591 558.833 436.015 559.838 436.459C560.844 436.904 561.419 437.946 560.975 438.951L554.843 456.301C554.413 456.898 553.779 457.489 552.963 457.459Z" fill="#54EACE"/>
<path d="M559.089 440.313C558.069 440.277 557.282 439.432 557.318 438.412C557.355 437.392 558.003 436.393 559.227 436.437L577.443 435.45C578.47 435.283 579.461 436.135 579.417 437.359C579.381 438.379 578.733 439.377 577.509 439.334L559.089 440.313C559.293 440.32 559.089 440.313 559.089 440.313Z" fill="#54EACE"/>
<path d="M577.297 439.531C577.093 439.524 576.889 439.516 576.685 439.509C575.68 439.065 575.104 438.023 575.548 437.017L581.681 419.668C582.125 418.662 583.167 418.086 584.172 418.531C585.178 418.975 585.754 420.017 585.309 421.022L579.184 438.168C578.951 438.977 578.113 439.56 577.297 439.531Z" fill="#54EACE"/>
<path d="M583.625 422.393C582.605 422.357 581.818 421.512 581.855 420.492C581.891 419.472 582.539 418.473 583.763 418.517L601.979 417.53C602.999 417.567 603.997 418.215 603.954 419.439C603.917 420.459 603.269 421.458 602.045 421.414L583.625 422.393Z" fill="#54EACE"/>
<path d="M601.842 421.406C601.638 421.399 601.434 421.392 601.23 421.384C600.224 420.94 599.649 419.898 600.093 418.893L606.225 401.543C606.669 400.537 607.711 399.962 608.717 400.406C609.722 400.85 610.298 401.892 609.854 402.898L603.722 420.247C603.489 421.056 602.658 421.435 601.842 421.406Z" fill="#54EACE"/>
<path d="M608.164 404.472C607.144 404.435 606.357 403.59 606.393 402.57C606.43 401.55 607.078 400.552 608.302 400.595L626.517 399.609C627.537 399.645 628.536 400.293 628.492 401.518C628.456 402.538 627.808 403.536 626.584 403.492L608.164 404.472Z" fill="#54EACE"/>
</g>
</svg>
