<svg width="48" height="48" viewBox="0 0 48 48" fill="none" xmlns="http://www.w3.org/2000/svg">
<g clip-path="url(#clip0_1_509)">
<path d="M13.1803 17.7919C10.2224 17.3898 6.77196 18.6686 4.39012 21.0508L0.412706 25.0282C-0.0370007 25.4779 -0.129286 26.1741 0.189318 26.7256C0.500231 27.2698 1.15135 27.547 1.77098 27.3811C4.29491 26.7044 7.63548 26.4792 8.4569 27.1065L13.1803 17.7919Z" fill="#FF637B"/>
<path d="M30.121 34.8408L20.7929 39.3408C21.3125 40.0487 21.2715 42.2877 20.6658 46.3878C20.5754 46.9943 20.8888 47.5813 21.4242 47.849C21.9659 48.1229 22.6214 48.0171 23.0506 47.5879L27.028 43.6105C29.2751 41.3634 30.4898 37.921 30.121 34.8408Z" fill="#E63950"/>
<path d="M22.1969 39.8207C18.9157 41.5906 18.4982 41.6902 18.0009 42.0282C17.4439 42.386 16.7279 42.3065 16.2508 41.8293L6.30704 31.8856C5.84965 31.4282 5.7504 30.6921 6.10819 30.1355C6.4462 29.6382 6.48612 29.3199 8.27579 25.8995L12.2137 25.8596L22.1574 35.8033L22.1969 39.8207Z" fill="#7C8388"/>
<path d="M22.1962 39.8207C18.915 41.5906 18.4975 41.6902 18.0002 42.0282C17.4432 42.386 16.7272 42.3065 16.2501 41.8293L11.278 36.8573L17.2443 30.8914L22.1563 35.8033L22.1962 39.8207Z" fill="#575F64"/>
<path d="M22.1962 39.8207L8.27514 25.8996C15.176 12.8735 23.4692 4.73925 33.0947 1.55762L39.8563 8.2794L46.4587 14.8822C43.2771 24.4677 35.163 32.8202 22.1962 39.8207Z" fill="#FAECD8"/>
<path d="M22.1966 39.8207L15.2559 32.8799L39.8568 8.2793L46.4592 14.8817C43.2776 24.4677 35.1634 32.8202 22.1966 39.8207Z" fill="#F4D7AF"/>
<path d="M35.5211 12.6149L35.4614 12.5552C32.717 9.81087 28.262 9.8105 25.5177 12.5552C22.7733 15.2996 22.7733 19.7546 25.5177 22.4986L25.5773 22.5583C28.3217 25.2232 32.7368 25.2232 35.4614 22.4986C38.186 19.7744 38.186 15.359 35.5211 12.6149Z" fill="#64E1DC"/>
<path d="M35.4613 22.4986C32.7367 25.2233 28.3216 25.2233 25.5773 22.5583L35.521 12.615C38.1859 15.359 38.1859 19.7744 35.4613 22.4986Z" fill="#00C8C8"/>
<path d="M46.4586 14.8818C43.4162 14.6631 40.1547 13.2313 37.5096 10.626L37.4499 10.5663C34.785 7.90142 33.2934 4.6198 33.0945 1.55718C34.0093 1.23894 34.9439 0.980398 35.8788 0.76177C39.2794 -0.0138649 42.8394 -0.192942 46.5385 0.205129C46.8962 0.24468 47.2343 0.423757 47.4331 0.702078C47.632 0.90093 47.7715 1.15948 47.7913 1.45794C48.2091 5.13689 47.9901 8.69683 47.2145 12.0975C46.9959 13.0324 46.7571 13.9472 46.4586 14.8818Z" fill="#FF637B"/>
<path d="M46.4593 14.8818C43.4168 14.6632 40.1554 13.2313 37.5102 10.6261L47.4338 0.702148C47.6327 0.901001 47.7718 1.15955 47.792 1.45801C48.2094 5.13733 47.9908 8.6969 47.2152 12.0975C46.9966 13.0325 46.7578 13.9473 46.4593 14.8818Z" fill="#E63950"/>
<path d="M21.9573 27.4508C21.9375 27.1125 21.7983 26.8144 21.5596 26.5756C21.3208 26.2574 20.9432 26.0387 20.5455 26.0387C15.3746 25.9988 14.2211 27.8284 13.923 28.1269C5.31189 36.7379 5.21228 40.9743 5.21228 41.4115C5.23206 41.7894 5.37122 42.1278 5.62976 42.386C5.64954 42.4058 5.66968 42.4259 5.70959 42.4259C5.90845 42.6248 6.18677 42.7442 6.48486 42.7639C7.20081 42.8434 11.2379 42.7442 19.8889 34.0932C21.8383 32.1442 21.9774 30.3344 21.9573 27.4508Z" fill="#FF637B"/>
<path d="M21.9578 27.4507C21.9779 30.3342 21.8388 32.144 19.8894 34.093C11.2384 42.744 7.20132 42.8433 6.48575 42.7638C6.18729 42.744 5.90897 42.6246 5.71011 42.4258L21.5605 26.5754C21.7989 26.8142 21.938 27.1123 21.9578 27.4507Z" fill="#E63950"/>
</g>
<defs>
<clipPath id="clip0_1_509">
<rect width="48" height="48" fill="white"/>
</clipPath>
</defs>
</svg>
