<svg width="52" height="52" viewBox="0 0 52 52" fill="none" xmlns="http://www.w3.org/2000/svg">
<path d="M39.4467 12.551L39.8363 8.26662C39.8743 7.84881 40.0575 7.4577 40.3542 7.16104L45.7224 1.79259C46.0725 1.44251 46.6402 1.44251 46.9903 1.79259L50.2051 5.00736C50.5552 5.35744 50.5552 5.92516 50.2051 6.27524L44.8366 11.6437C44.54 11.9404 44.1488 12.1236 43.7311 12.1615L39.4467 12.551Z" fill="#FF6464"/>
<path d="M21.5162 51.9985C33.3995 51.9985 43.0328 42.3651 43.0328 30.4818C43.0328 18.5984 33.3995 8.96509 21.5162 8.96509C9.63283 8.96509 -0.000518799 18.5984 -0.000518799 30.4818C-0.000518799 42.3651 9.63283 51.9985 21.5162 51.9985Z" fill="#FF6464"/>
<path d="M21.5181 46.6203C30.4307 46.6203 37.6557 39.3953 37.6557 30.4828C37.6557 21.5702 30.4307 14.3452 21.5181 14.3452C12.6056 14.3452 5.38057 21.5702 5.38057 30.4828C5.38057 39.3953 12.6056 46.6203 21.5181 46.6203Z" fill="white"/>
<path d="M21.5177 41.2408C27.4594 41.2408 32.276 36.4241 32.276 30.4825C32.276 24.5408 27.4594 19.7241 21.5177 19.7241C15.576 19.7241 10.7594 24.5408 10.7594 30.4825C10.7594 36.4241 15.576 41.2408 21.5177 41.2408Z" fill="#FF6464"/>
<path d="M21.5174 35.862C24.4883 35.862 26.8966 33.4536 26.8966 30.4827C26.8966 27.5119 24.4883 25.1035 21.5174 25.1035C18.5465 25.1035 16.1382 27.5119 16.1382 30.4827C16.1382 33.4536 18.5465 35.862 21.5174 35.862Z" fill="white"/>
<path d="M21.5156 31.3792C21.2862 31.3792 21.0568 31.2916 20.8818 31.1165C20.5316 30.7664 20.5316 30.199 20.8818 29.8488L50.4672 0.263366C50.8174 -0.0868122 51.3848 -0.0868122 51.735 0.263366C52.0852 0.613545 52.0852 1.18086 51.735 1.53104L22.1496 31.1164C21.9745 31.2917 21.745 31.3792 21.5156 31.3792Z" fill="#464655"/>
<path d="M51.7373 0.263366C51.3871 -0.0868122 50.8197 -0.0868122 50.4695 0.263366L48.9391 1.79377L50.2069 3.06144L51.7373 1.53104C52.0875 1.18086 52.0875 0.613646 51.7373 0.263366Z" fill="#FF6464"/>
</svg>
